# xmcd
#
# Track frame offsets:
#	150
#	19877
#	42852
#	66029
#	88178
#
# Disc length: 1294 seconds
#
# Revision: 1
# Processed by: cddbd v1.5.1PL0 Copyright (c) Steve Scherf et al.
# Submitted via: CDex 1.50Beta5
#
DISCID=3a050c05
DTITLE=Exile - Breezin' 〜Together〜
DYEAR=2003
DGENRE=Pop
TTITLE0=Together
TTITLE1=Time
TTITLE2=BLUE 〜云えずにいる〜
TTITLE3=砂時計
TTITLE4=Together　〜a cappela version〜
EXTD=
EXTT0=
EXTT1=
EXTT2=
EXTT3=
EXTT4=
PLAYORDER=
